<?xml version="1.0" encoding="utf-8"?>
<!-- Generator: Adobe Illustrator 21.0.0, SVG Export Plug-In . SVG Version: 6.00 Build 0)  -->

<svg version="1.1" id="Warstwa_1" xmlns="http://www.w3.org/2000/svg" xmlns:xlink="http://www.w3.org/1999/xlink" x="0px" y="0px"
      viewBox="0 0 112.9 124.2" style="enable-background:new 0 0 112.9 124.2;" xml:space="preserve" class="vec">
<style>
  .st0{fill:url(#SVGID_1_);}
  .st1{fill:#008300;}
  .st2{fill:url(#SVGID_2_);}
  .st3{opacity:0.5;fill:url(#SVGID_3_);}
  .st4{opacity:0.5;fill:url(#SVGID_4_);}
  .st5{fill:url(#SVGID_5_);}
  .st6{opacity:0.5;fill:url(#SVGID_6_);}
  .st7{opacity:0.5;fill:url(#SVGID_7_);}
  .st8{opacity:0.5;fill:url(#SVGID_8_);}
</style>
<g>
  <g>
    <g>
      <g>
        <linearGradient id="SVGID_1_" gradientUnits="userSpaceOnUse" x1="28.4021" y1="110.6882" x2="84.5069" y2="13.5118">
          <stop offset="0" style="stop-color:#3AFF0F" />
          <stop offset="0.9944" style="stop-color:#008300" />
        </linearGradient>
        <path class="st0" d="M106,30.6L66.3,3c-2.9-2-6.3-3-9.8-3c-3.6,0-6.9,1.1-9.8,3L6.9,30.6c-4.3,3-6.9,7.9-6.9,13v36.8
    c0,5.1,2.6,10,6.9,13l39.7,27.6c2.9,2,6.3,3,9.8,3c3.6,0,6.9-1.1,9.8-3L106,93.6c4.3-3,6.9-7.9,6.9-13V43.7
    C112.9,38.6,110.3,33.7,106,30.6z M107.9,80.5c0,3.5-1.8,6.8-4.8,8.9L63.4,117c-2,1.4-4.4,2.1-7,2.1s-4.9-0.7-7-2.1L9.8,89.4
    C6.8,87.4,5,84,5,80.5V43.7c0-3.5,1.8-6.8,4.8-8.9L49.5,7.2c2-1.4,4.4-2.1,7-2.1s4.9,0.7,7,2.1l39.7,27.6c3,2.1,4.8,5.4,4.8,8.9
    V80.5z" />
      </g>
    </g>
  </g>
  <g>
    <g>
      <g>
        <g>
          <polygon class="st1" points="82.6,38.7 82.6,50.3 71,50.3 71,85.2 59.4,85.2 59.4,50.3 47.7,50.3 47.7,38.7 					" />
        </g>
        <g>
          <rect x="30.3" y="38.7" class="st1" width="11.6" height="46.5" />
        </g>
      </g>
    </g>
    <linearGradient id="SVGID_2_" gradientUnits="userSpaceOnUse" x1="44.7159" y1="76.8531" x2="24.5721" y2="41.9631">
      <stop offset="0" style="stop-color:#3AFF0F" />
      <stop offset="0.9944" style="stop-color:#008300" />
    </linearGradient>
    <polygon class="st2" points="41.9,38.7 30.3,85.2 30.3,38.7 		" />
    <linearGradient id="SVGID_3_" gradientUnits="userSpaceOnUse" x1="43.2621" y1="84.4071" x2="20.2108" y2="44.4811">
      <stop offset="0" style="stop-color:#3AFF0F" />
      <stop offset="0.9944" style="stop-color:#008300" />
    </linearGradient>
    <polygon class="st3" points="41.9,85.2 30.3,38.7 30.3,85.2 		" />
    <linearGradient id="SVGID_4_" gradientUnits="userSpaceOnUse" x1="67.0246" y1="47.6738" x2="58.3021" y2="32.5659">
      <stop offset="0" style="stop-color:#3AFF0F" />
      <stop offset="0.9944" style="stop-color:#008300" />
    </linearGradient>
    <polygon class="st4" points="47.7,50.3 82.6,38.7 47.7,38.7 		" />
    <linearGradient id="SVGID_5_" gradientUnits="userSpaceOnUse" x1="74.189" y1="83.3428" x2="59.0812" y2="57.1753">
      <stop offset="0" style="stop-color:#3AFF0F" />
      <stop offset="0.9944" style="stop-color:#008300" />
    </linearGradient>
    <polygon class="st5" points="71,50.3 59.4,85.2 71,85.2 		" />
    <linearGradient id="SVGID_6_" gradientUnits="userSpaceOnUse" x1="69.8278" y1="85.8608" x2="51.8125" y2="54.6573">
      <stop offset="0" style="stop-color:#3AFF0F" />
      <stop offset="0.9944" style="stop-color:#008300" />
    </linearGradient>
    <polygon class="st6" points="59.4,50.3 71,85.2 59.4,85.2 		" />
    <linearGradient id="SVGID_7_" gradientUnits="userSpaceOnUse" x1="80.7831" y1="51.3603" x2="75.7471" y2="42.6378">
      <stop offset="0" style="stop-color:#3AFF0F" />
      <stop offset="0.9944" style="stop-color:#008300" />
    </linearGradient>
    <polygon class="st7" points="71,50.3 82.6,38.7 82.6,50.3 		" />
    <linearGradient id="SVGID_8_" gradientUnits="userSpaceOnUse" x1="69.5426" y1="57.85" x2="55.7842" y2="34.0197">
      <stop offset="0" style="stop-color:#3AFF0F" />
      <stop offset="0.9944" style="stop-color:#008300" />
    </linearGradient>
    <polyline class="st8" points="82.6,50.3 47.7,38.7 47.7,50.3 		" />
  </g>
</g>
</svg>