<?xml version="1.0" encoding="utf-8"?>
<!-- Generator: Adobe Illustrator 21.0.0, SVG Export Plug-In . SVG Version: 6.00 Build 0)  -->
<svg version="1.1" id="Warstwa_1" xmlns="http://www.w3.org/2000/svg" xmlns:xlink="http://www.w3.org/1999/xlink" x="0px" y="0px"
	 viewBox="0 0 291.8 124.2" style="enable-background:new 0 0 291.8 124.2;" xml:space="preserve">
<style type="text/css">
	.st0{fill:url(#SVGID_1_);}
	.st1{fill:#008300;}
	.st2{fill:url(#SVGID_2_);}
	.st3{opacity:0.5;fill:url(#SVGID_3_);}
	.st4{opacity:0.5;fill:url(#SVGID_4_);}
	.st5{fill:url(#SVGID_5_);}
	.st6{opacity:0.5;fill:url(#SVGID_6_);}
	.st7{opacity:0.5;fill:url(#SVGID_7_);}
	.st8{opacity:0.5;fill:url(#SVGID_8_);}
</style>
<g>
	<path d="M33.8,38.7h3.9c0.5,0,0.7,0.3,0.7,0.9v45.1c0,0.6-0.2,0.9-0.7,0.9h-2.1c-0.5,0-0.8-0.3-0.8-0.9V44.3h-0.3L21.6,74.5
		c-0.3,0.5-0.7,0.8-1.1,0.8h-2.4c-0.5,0-0.8-0.3-1-0.8L3.9,44.2H3.7v40.4c0,0.6-0.2,0.9-0.7,0.9H0.8c-0.5,0-0.7-0.3-0.7-0.9V39.5
		c0-0.6,0.2-0.9,0.7-0.9h3.9c0.3,0,0.6,0.1,0.7,0.4l13.7,32h0.3l13.7-32C33.2,38.8,33.4,38.7,33.8,38.7z"/>
	<path d="M74.8,85.5H59.6c-3.2,0-5.6-0.9-7.5-2.8c-1.8-1.8-2.7-4.4-2.7-7.6V58.7c0-3.2,0.9-5.7,2.7-7.6c1.8-1.8,4.3-2.8,7.5-2.8h6.3
		c3.2,0,5.7,0.9,7.5,2.8c1.8,1.8,2.8,4.4,2.8,7.6V68c0,0.6-0.3,0.9-0.9,0.9H53.6c-0.4,0-0.7,0.2-0.7,0.7v5.6c0,2.3,0.6,4,1.7,5.3
		c1.2,1.2,2.9,1.9,5.1,1.9h14.9c0.5,0,0.8,0.3,0.8,0.8v1.7C75.6,85.3,75.3,85.5,74.8,85.5z M53.6,65.9h18.1c0.4,0,0.7-0.2,0.7-0.7
		v-6.5c0-2.3-0.6-4-1.7-5.3c-1.2-1.2-2.9-1.9-5.1-1.9h-5.8c-2.2,0-3.9,0.6-5.1,1.9c-1.2,1.2-1.7,3-1.7,5.3v6.5
		C53,65.7,53.2,65.9,53.6,65.9z"/>
	<path d="M110.6,85.5H95.4c-3.2,0-5.6-0.9-7.5-2.8c-1.8-1.8-2.7-4.4-2.7-7.6V58.7c0-3.2,0.9-5.7,2.7-7.6c1.8-1.8,4.3-2.8,7.5-2.8
		h6.3c3.2,0,5.7,0.9,7.5,2.8c1.8,1.8,2.8,4.4,2.8,7.6V68c0,0.6-0.3,0.9-0.9,0.9H89.5c-0.4,0-0.7,0.2-0.7,0.7v5.6
		c0,2.3,0.6,4,1.7,5.3c1.2,1.2,2.9,1.9,5.1,1.9h14.9c0.5,0,0.8,0.3,0.8,0.8v1.7C111.4,85.3,111.2,85.5,110.6,85.5z M89.5,65.9h18.1
		c0.4,0,0.7-0.2,0.7-0.7v-6.5c0-2.3-0.6-4-1.7-5.3c-1.2-1.2-2.9-1.9-5.1-1.9h-5.8c-2.2,0-3.9,0.6-5.1,1.9c-1.2,1.2-1.7,3-1.7,5.3
		v6.5C88.9,65.7,89.1,65.9,89.5,65.9z"/>
	<path d="M123.4,51.6h-4.4c-0.5,0-0.8-0.2-0.8-0.7v-1.7c0-0.5,0.3-0.8,0.8-0.8h4.4c0.4,0,0.7-0.2,0.7-0.7v-5.9
		c0-0.6,0.3-0.9,0.8-0.9h2.1c0.5,0,0.8,0.3,0.8,0.9v5.9c0,0.4,0.2,0.7,0.7,0.7h8.7c0.5,0,0.8,0.3,0.8,0.8v1.7c0,0.5-0.3,0.7-0.8,0.7
		h-8.7c-0.4,0-0.7,0.2-0.7,0.7v23c0,2.2,0.6,4,1.9,5.2c1.3,1.2,3,1.8,5.3,1.8h2.8c0.5,0,0.8,0.3,0.8,0.8v1.7c0,0.5-0.3,0.8-0.8,0.8
		h-3.1c-3.2,0-5.8-0.9-7.7-2.7c-1.9-1.8-2.9-4.3-2.9-7.4V52.3C124.1,51.9,123.8,51.6,123.4,51.6z"/>
</g>
<g>
	<g>
		<g>
			<g>
				<linearGradient id="SVGID_1_" gradientUnits="userSpaceOnUse" x1="207.2529" y1="110.6882" x2="263.3577" y2="13.5118">
					<stop  offset="0" style="stop-color:#3AFF0F"/>
					<stop  offset="0.9944" style="stop-color:#008300"/>
				</linearGradient>
				<path class="st0" d="M284.8,30.6L245.1,3c-2.9-2-6.3-3-9.8-3s-6.9,1.1-9.8,3l-39.7,27.6c-4.3,3-6.9,7.9-6.9,13v36.8
					c0,5.1,2.6,10,6.9,13l39.7,27.6c2.9,2,6.3,3,9.8,3s6.9-1.1,9.8-3l39.7-27.6c4.3-3,6.9-7.9,6.9-13V43.7
					C291.8,38.6,289.2,33.7,284.8,30.6z M286.7,80.5c0,3.5-1.8,6.8-4.8,8.9L242.3,117c-2,1.4-4.4,2.1-7,2.1c-2.5,0-4.9-0.7-7-2.1
					l-39.7-27.6c-3-2.1-4.8-5.4-4.8-8.9V43.7c0-3.5,1.8-6.8,4.8-8.9l39.7-27.6c2-1.4,4.4-2.1,7-2.1c2.5,0,4.9,0.7,7,2.1L282,34.8
					c3,2.1,4.8,5.4,4.8,8.9V80.5z"/>
			</g>
		</g>
	</g>
	<g>
		<g>
			<g>
				<g>
					<polygon class="st1" points="261.5,38.7 261.5,50.3 249.8,50.3 249.8,85.2 238.2,85.2 238.2,50.3 226.6,50.3 226.6,38.7 					
						"/>
				</g>
				<g>
					<rect x="209.1" y="38.7" class="st1" width="11.6" height="46.5"/>
				</g>
			</g>
		</g>
		<linearGradient id="SVGID_2_" gradientUnits="userSpaceOnUse" x1="223.5666" y1="76.8531" x2="203.4228" y2="41.9631">
			<stop  offset="0" style="stop-color:#3AFF0F"/>
			<stop  offset="0.9944" style="stop-color:#008300"/>
		</linearGradient>
		<polygon class="st2" points="220.8,38.7 209.1,85.2 209.1,38.7 		"/>
		<linearGradient id="SVGID_3_" gradientUnits="userSpaceOnUse" x1="222.1128" y1="84.4071" x2="199.0616" y2="44.4811">
			<stop  offset="0" style="stop-color:#3AFF0F"/>
			<stop  offset="0.9944" style="stop-color:#008300"/>
		</linearGradient>
		<polygon class="st3" points="220.8,85.2 209.1,38.7 209.1,85.2 		"/>
		<linearGradient id="SVGID_4_" gradientUnits="userSpaceOnUse" x1="245.8754" y1="47.6738" x2="237.1529" y2="32.5659">
			<stop  offset="0" style="stop-color:#3AFF0F"/>
			<stop  offset="0.9944" style="stop-color:#008300"/>
		</linearGradient>
		<polygon class="st4" points="226.6,50.3 261.5,38.7 226.6,38.7 		"/>
		<linearGradient id="SVGID_5_" gradientUnits="userSpaceOnUse" x1="253.0397" y1="83.3428" x2="237.9319" y2="57.1753">
			<stop  offset="0" style="stop-color:#3AFF0F"/>
			<stop  offset="0.9944" style="stop-color:#008300"/>
		</linearGradient>
		<polygon class="st5" points="249.8,50.3 238.2,85.2 249.8,85.2 		"/>
		<linearGradient id="SVGID_6_" gradientUnits="userSpaceOnUse" x1="248.6785" y1="85.8608" x2="230.6632" y2="54.6573">
			<stop  offset="0" style="stop-color:#3AFF0F"/>
			<stop  offset="0.9944" style="stop-color:#008300"/>
		</linearGradient>
		<polygon class="st6" points="238.2,50.3 249.8,85.2 238.2,85.2 		"/>
		<linearGradient id="SVGID_7_" gradientUnits="userSpaceOnUse" x1="259.6338" y1="51.3603" x2="254.5979" y2="42.6378">
			<stop  offset="0" style="stop-color:#3AFF0F"/>
			<stop  offset="0.9944" style="stop-color:#008300"/>
		</linearGradient>
		<polygon class="st7" points="249.8,50.3 261.5,38.7 261.5,50.3 		"/>
		<linearGradient id="SVGID_8_" gradientUnits="userSpaceOnUse" x1="248.3933" y1="57.85" x2="234.6349" y2="34.0197">
			<stop  offset="0" style="stop-color:#3AFF0F"/>
			<stop  offset="0.9944" style="stop-color:#008300"/>
		</linearGradient>
		<polyline class="st8" points="261.5,50.3 226.6,38.7 226.6,50.3 		"/>
	</g>
</g>
</svg>
