<?xml version="1.0" encoding="utf-8"?>
<!-- Generator: Adobe Illustrator 21.0.0, SVG Export Plug-In . SVG Version: 6.00 Build 0)  -->
<svg version="1.1" id="Warstwa_1" xmlns="http://www.w3.org/2000/svg" xmlns:xlink="http://www.w3.org/1999/xlink" x="0px" y="0px"
	 viewBox="0 0 550.3 122.5" style="enable-background:new 0 0 550.3 122.5;" xml:space="preserve">
<style type="text/css">
	.st0{fill:#000000;}
</style>
<path class="st0" d="M28.6,31.8c2,0,3.9,0.2,5.7,0.6C32.4,32,30.5,31.8,28.6,31.8z"/>
<path class="st0" d="M120.4,65.7h-37c1.7,6.8,7.8,12.1,15.2,12.1c3.8,0,9.5-1.6,12.6-4.6c2.9-2.8,7.4-2.8,10.2,0.1
	c2.9,2.8,2.8,7.4-0.1,10.2c-6.6,6.4-15.8,8.5-22.7,8.5c-16.7,0-30-13.4-30-30.1c0-16.4,13.3-30.1,30-30.1c1.8,0,3.5,0.1,5.3,0.5
	c8.2,1.6,15.1,6.6,19.4,13.8c1.9,3.4,4.1,7.8,3.8,11.8c0,1.1-0.5,2.3-1,3.5C125.3,63.6,123.2,65.7,120.4,65.7z M85.4,53.5h25.4
	c-2.4-4.6-6.8-7.2-12.2-7.2C93.1,46.3,88.3,49.1,85.4,53.5z"/>
<path class="st0" d="M336.4,39.9c-5.4-5-12.4-7.9-19.8-7.9c-5.5,0-10.8,1.7-15.2,4.4c0,0-14,8.6-14,25.2v22.9c0,4,3.2,7.2,7.2,7.2
	s7.2-3.2,7.2-7.2V61.8c0-8.5,6.7-15.5,14.9-15.5c3.7,0,7.3,1.4,10,4c3,2.8,7.4,2.5,10.2-0.4S339.3,42.5,336.4,39.9z"/>
<path class="st0" d="M378.4,91.5c-16.6,0-30.1-13.4-30.1-30.1c0-16.6,13.6-30.1,30.1-30.1s30.1,13.6,30.2,30.2
	C408.5,78,394.9,91.5,378.4,91.5z M378.4,46c-8.5,0-15.4,6.8-15.4,15.4c0,8.5,6.8,15.4,15.4,15.4s15.4-6.8,15.4-15.4
	C393.7,52.8,386.9,46,378.4,46z"/>
<path class="st0" d="M450.7,31.2c-16.6,0-30.1,13.6-30.1,30.1c0,0.4,0,0.9,0,1.3c0,0.2,0,0.4,0,0.6v52.1c0,4,3.2,7.2,7.2,7.2
	s7.3-3.2,7.3-7.2V87.1c4.6,2.8,9.9,4.4,15.6,4.4c16.6,0,30.1-13.4,30.2-30C480.8,44.8,467.2,31.2,450.7,31.2z M450.7,76.7
	c-8.5,0-15.4-6.8-15.4-15.4c0-8.5,6.8-15.4,15.4-15.4S466,52.8,466,61.3C466,69.9,459.2,76.7,450.7,76.7z"/>
<path class="st0" d="M543.4,65.7h-37c1.7,6.8,7.8,12.1,15.2,12.1c3.8,0,9.5-1.6,12.6-4.6c2.9-2.8,7.4-2.8,10.2,0.1
	c2.9,2.8,2.8,7.4-0.1,10.2c-6.6,6.4-15.8,8.5-22.7,8.5c-16.7,0-30-13.4-30-30.1c0-16.4,13.3-30.1,30-30.1c1.8,0,3.5,0.1,5.3,0.5
	c8.2,1.6,15.1,6.6,19.4,13.8c1.9,3.4,4.1,7.8,3.8,11.8c0,1.1-0.5,2.3-1,3.5C548.4,63.6,546.3,65.7,543.4,65.7z M508.5,53.5H534
	c-2.4-4.6-6.8-7.2-12.2-7.2C516.2,46.3,511.4,49.1,508.5,53.5z"/>
<path class="st0" d="M274.1,37.1c0,4-3.2,7.2-7.2,7.2h-5.1v40.1c0,4-3.2,7.2-7.2,7.2c-2,0-3.8-0.8-5.1-2.1c-1.3-1.3-2.1-3.1-2.1-5.1
	V44.3h-5.1c-4,0-7.2-3.2-7.2-7.2c0-4,3.2-7.2,7.2-7.2h5.1V7.2c0-4,3.2-7.2,7.2-7.2c2,0,3.8,0.8,5.1,2.1c1.3,1.3,2.1,3.1,2.1,5.1
	v22.8h5.1C270.8,29.9,274.1,33.2,274.1,37.1z"/>
<g>
	<circle class="st0" cx="215.9" cy="84.2" r="7.2"/>
	<path class="st0" d="M204.6,63.8c0,1.9-0.7,3.7-2.1,5.1c-2.7,2.7-7,2.8-9.8,0.4l-9.8-10.8l-2.3-2.5l-5.4-5.9l-4.4-4.8l-1.9-2.1
		l-9.2-10.2c-0.2-0.2-0.3-0.3-0.4-0.5c-1-1.3-1.4-2.8-1.4-4.3c0-1.9,0.7-3.7,2.1-5.1c2.7-2.7,7-2.8,9.9-0.4c0.2,0.2,0.4,0.4,0.6,0.6
		l9.3,10.2l1,1.1l6.6,7.4l3.1,3.5l3.2,3.6l9.7,10.6C204.1,60.7,204.6,62.2,204.6,63.8z"/>
	<path class="st0" d="M141.5,89.6c1.5,1.2,3.2,1.8,4.9,1.8c1.9,0,4-0.8,5.3-2.4l27.9-30.6l0.9-1l9.7-10.8l3.1-3.4l27.9-30.6
		c2.7-3,2.4-7.5-0.5-10.3c-2.9-2.7-7.5-2.4-10.2,0.6l-27.8,30.6l-2.2,2.4l-9.8,10.7l-1.8,2L141,79.3
		C138.4,82.3,138.6,86.8,141.5,89.6z"/>
</g>
<path class="st0" d="M56.6,61.6v22.7c0,4-3.1,7.2-7.1,7.2c-3.9,0-7-3-7.2-6.8c0-0.2,0-0.3,0-0.4V61.6c0-8.5-6.2-15.4-13.8-15.4
	c-9.4,0-14.2,9.4-14.2,17.6v20.4c0,0.2,0,0.3,0,0.5c-0.3,3.7-3.4,6.7-7.2,6.7c-4,0-7.2-3.2-7.2-7.2V60.1c0-10.3,5.5-19.4,13.8-24.3
	c0,0.1,0.1,0.2,0.1,0.3c4-2.6,8.6-4.1,13.6-4.3c0.3,0,0.5,0,0.8,0h0.2c2,0,3.9,0.2,5.7,0.6c0.3,0.1,0.5,0.1,0.8,0.2
	c0.2,0,0.3,0.1,0.5,0.1c11.9,3.2,20.8,14.5,21,28.1C56.6,61.1,56.6,61.3,56.6,61.6z"/>
<path class="st0" d="M27.5,31.8c-5,0.2-9.5,1.7-13.6,4.3c0-0.1-0.1-0.2-0.1-0.3C17.8,33.4,22.5,32,27.5,31.8z"/>
<path class="st0" d="M56.6,60.1c0,0.2,0,0.5,0,0.7c-0.3-13.6-9.2-24.8-21-28.1C47.7,36,56.6,47,56.6,60.1z"/>
</svg>